<svg xmlns="http://www.w3.org/2000/svg" viewBox="0 0 120 120" width="100%" height="100%">
  <defs>
    <linearGradient id="neonGrad" x1="0%" y1="0%" x2="100%" y2="100%">
      <stop offset="0%" stop-color="#00ff84"/>
      <stop offset="100%" stop-color="#00e676"/>
    </linearGradient>
    
    <filter id="neonGlow" x="-20%" y="-20%" width="140%" height="140%">
      <feDropShadow dx="0" dy="4" stdDeviation="5" flood-color="#00e676" flood-opacity="0.3"/>
    </filter>
  </defs>

  <rect x="10" y="10" width="100" height="100" rx="24" fill="rgba(0, 230, 118, 0.05)" stroke="rgba(0, 230, 118, 0.2)" stroke-width="1.5"/>

  <g filter="url(#neonGlow)">
    <path d="M 44 38 L 64 38 L 76 50 L 76 79 C 76 80.6 74.6 82 73 82 L 47 82 C 45.4 82 44 80.6 44 79 Z" fill="url(#neonGrad)"/>
    
    <path d="M 64 38 L 64 50 L 76 50 Z" fill="#b2ebf2" opacity="0.9"/>
    <path d="M 64 50 L 76 50 L 64 38 Z" fill="#021b1a" opacity="0.15"/>
    
    <rect x="44" y="59" width="32" height="14" fill="#021b1a" opacity="0.2"/>
    <text x="60" y="70" font-family="system-ui, -apple-system, sans-serif" font-weight="900" font-size="10" fill="#021b1a" text-anchor="middle" letter-spacing="1.5">PDF</text>
    
    <rect x="50" y="47" width="8" height="2" rx="1" fill="#021b1a" opacity="0.6"/>
    <rect x="50" y="53" width="14" height="2" rx="1" fill="#021b1a" opacity="0.6"/>
  </g>

  <g fill="none" stroke="#b2ebf2" stroke-width="4.5" stroke-linecap="round" stroke-linejoin="round">
    <path d="M 26 38 L 38 38 L 38 26" />
    <path d="M 94 38 L 82 38 L 82 26" />
    <path d="M 94 82 L 82 82 L 82 94" />
    <path d="M 26 82 L 38 82 L 38 94" />
  </g>
</svg>
