<svg xmlns="http://www.w3.org/2000/svg" viewBox="0 0 120 120" width="100%" height="100%">
  <defs>
    <linearGradient id="neonGradMergeV3" x1="0%" y1="0%" x2="100%" y2="100%">
      <stop offset="0%" stop-color="#00ff84"/>
      <stop offset="100%" stop-color="#00e676"/>
    </linearGradient>
    
    <filter id="neonGlowMergeV3" x="-10%" y="-10%" width="120%" height="120%">
      <feDropShadow dx="0" dy="3" stdDeviation="4" flood-color="#00e676" flood-opacity="0.35"/>
    </filter>
  </defs>

  <rect x="10" y="10" width="100" height="100" rx="24" fill="rgba(0, 230, 118, 0.05)" stroke="rgba(0, 230, 118, 0.2)" stroke-width="1.5"/>

  <g>
    <path d="M 30 24 L 42 24 L 48 30 L 48 46 C 48 48.2 46.2 50 44 50 L 34 50 C 31.8 50 30 48.2 30 46 Z" fill="#012f28" stroke="#b2ebf2" stroke-width="2" stroke-linejoin="round"/>
    <path d="M 42 24 L 42 30 L 48 30" fill="rgba(178, 235, 242, 0.1)" stroke="#b2ebf2" stroke-width="2" stroke-linejoin="round"/>
    <text x="39" y="43" font-family="system-ui, -apple-system, sans-serif" font-weight="800" font-size="6" fill="#b2ebf2" opacity="0.9" text-anchor="middle" letter-spacing="0.5">PDF</text>
  </g>

  <g>
    <path d="M 72 24 L 84 24 L 90 30 L 90 46 C 90 48.2 88.2 50 86 50 L 76 50 C 73.8 50 72 48.2 72 46 Z" fill="#012f28" stroke="#b2ebf2" stroke-width="2" stroke-linejoin="round"/>
    <path d="M 84 24 L 84 30 L 90 30" fill="rgba(178, 235, 242, 0.1)" stroke="#b2ebf2" stroke-width="2" stroke-linejoin="round"/>
    <text x="81" y="43" font-family="system-ui, -apple-system, sans-serif" font-weight="800" font-size="6" fill="#b2ebf2" opacity="0.9" text-anchor="middle" letter-spacing="0.5">PDF</text>
  </g>

  <path d="M 39 52 C 39 62, 60 62, 60 68 L 60 76 M 81 52 C 81 62, 60 62, 60 68 M 55 71 L 60 76 L 65 71" fill="none" stroke="#00e676" stroke-width="3" stroke-linecap="round" stroke-linejoin="round"/>

  <g filter="url(#neonGlowMergeV3)">
    <rect x="44" y="80" width="32" height="15" rx="4" fill="url(#neonGradMergeV3)"/>
    <text x="60" y="90" font-family="system-ui, -apple-system, sans-serif" font-weight="900" font-size="9" fill="#021b1a" text-anchor="middle" letter-spacing="1.5">PDF</text>
  </g>
</svg>
